%TF.GenerationSoftware,KiCad,Pcbnew,(5.1.10)-1*%
%TF.CreationDate,2021-05-10T23:52:44-03:00*%
%TF.ProjectId,MGA_02,4d47415f-3032-42e6-9b69-6361645f7063,rev?*%
%TF.SameCoordinates,Original*%
%TF.FileFunction,Legend,Bot*%
%TF.FilePolarity,Positive*%
%FSLAX46Y46*%
G04 Gerber Fmt 4.6, Leading zero omitted, Abs format (unit mm)*
G04 Created by KiCad (PCBNEW (5.1.10)-1) date 2021-05-10 23:52:44*
%MOMM*%
%LPD*%
G01*
G04 APERTURE LIST*
%ADD10C,0.150000*%
%ADD11C,0.500000*%
G04 APERTURE END LIST*
D10*
X104476190Y-126202380D02*
X104476190Y-127011904D01*
X104428571Y-127107142D01*
X104380952Y-127154761D01*
X104285714Y-127202380D01*
X104095238Y-127202380D01*
X104000000Y-127154761D01*
X103952380Y-127107142D01*
X103904761Y-127011904D01*
X103904761Y-126202380D01*
X103476190Y-126916666D02*
X103000000Y-126916666D01*
X103571428Y-127202380D02*
X103238095Y-126202380D01*
X102904761Y-127202380D01*
X102571428Y-127202380D02*
X102571428Y-126202380D01*
X101904761Y-126202380D02*
X101714285Y-126202380D01*
X101619047Y-126250000D01*
X101523809Y-126345238D01*
X101476190Y-126535714D01*
X101476190Y-126869047D01*
X101523809Y-127059523D01*
X101619047Y-127154761D01*
X101714285Y-127202380D01*
X101904761Y-127202380D01*
X102000000Y-127154761D01*
X102095238Y-127059523D01*
X102142857Y-126869047D01*
X102142857Y-126535714D01*
X102095238Y-126345238D01*
X102000000Y-126250000D01*
X101904761Y-126202380D01*
X101285714Y-127297619D02*
X100523809Y-127297619D01*
X100333333Y-126297619D02*
X100285714Y-126250000D01*
X100190476Y-126202380D01*
X99952380Y-126202380D01*
X99857142Y-126250000D01*
X99809523Y-126297619D01*
X99761904Y-126392857D01*
X99761904Y-126488095D01*
X99809523Y-126630952D01*
X100380952Y-127202380D01*
X99761904Y-127202380D01*
X98809523Y-127202380D02*
X99380952Y-127202380D01*
X99095238Y-127202380D02*
X99095238Y-126202380D01*
X99190476Y-126345238D01*
X99285714Y-126440476D01*
X99380952Y-126488095D01*
X98619047Y-127297619D02*
X97857142Y-127297619D01*
X97428571Y-126202380D02*
X97333333Y-126202380D01*
X97238095Y-126250000D01*
X97190476Y-126297619D01*
X97142857Y-126392857D01*
X97095238Y-126583333D01*
X97095238Y-126821428D01*
X97142857Y-127011904D01*
X97190476Y-127107142D01*
X97238095Y-127154761D01*
X97333333Y-127202380D01*
X97428571Y-127202380D01*
X97523809Y-127154761D01*
X97571428Y-127107142D01*
X97619047Y-127011904D01*
X97666666Y-126821428D01*
X97666666Y-126583333D01*
X97619047Y-126392857D01*
X97571428Y-126297619D01*
X97523809Y-126250000D01*
X97428571Y-126202380D01*
X96190476Y-126202380D02*
X96666666Y-126202380D01*
X96714285Y-126678571D01*
X96666666Y-126630952D01*
X96571428Y-126583333D01*
X96333333Y-126583333D01*
X96238095Y-126630952D01*
X96190476Y-126678571D01*
X96142857Y-126773809D01*
X96142857Y-127011904D01*
X96190476Y-127107142D01*
X96238095Y-127154761D01*
X96333333Y-127202380D01*
X96571428Y-127202380D01*
X96666666Y-127154761D01*
X96714285Y-127107142D01*
X95952380Y-127297619D02*
X95190476Y-127297619D01*
X94761904Y-126202380D02*
X94666666Y-126202380D01*
X94571428Y-126250000D01*
X94523809Y-126297619D01*
X94476190Y-126392857D01*
X94428571Y-126583333D01*
X94428571Y-126821428D01*
X94476190Y-127011904D01*
X94523809Y-127107142D01*
X94571428Y-127154761D01*
X94666666Y-127202380D01*
X94761904Y-127202380D01*
X94857142Y-127154761D01*
X94904761Y-127107142D01*
X94952380Y-127011904D01*
X95000000Y-126821428D01*
X95000000Y-126583333D01*
X94952380Y-126392857D01*
X94904761Y-126297619D01*
X94857142Y-126250000D01*
X94761904Y-126202380D01*
X94047619Y-126297619D02*
X94000000Y-126250000D01*
X93904761Y-126202380D01*
X93666666Y-126202380D01*
X93571428Y-126250000D01*
X93523809Y-126297619D01*
X93476190Y-126392857D01*
X93476190Y-126488095D01*
X93523809Y-126630952D01*
X94095238Y-127202380D01*
X93476190Y-127202380D01*
X106035714Y-117285714D02*
X105845238Y-117952380D01*
X105654761Y-117476190D01*
X105464285Y-117952380D01*
X105273809Y-117285714D01*
X104988095Y-117285714D02*
X104797619Y-117952380D01*
X104607142Y-117476190D01*
X104416666Y-117952380D01*
X104226190Y-117285714D01*
X103940476Y-117285714D02*
X103750000Y-117952380D01*
X103559523Y-117476190D01*
X103369047Y-117952380D01*
X103178571Y-117285714D01*
X102797619Y-117857142D02*
X102750000Y-117904761D01*
X102797619Y-117952380D01*
X102845238Y-117904761D01*
X102797619Y-117857142D01*
X102797619Y-117952380D01*
X102369047Y-117904761D02*
X102273809Y-117952380D01*
X102083333Y-117952380D01*
X101988095Y-117904761D01*
X101940476Y-117809523D01*
X101940476Y-117761904D01*
X101988095Y-117666666D01*
X102083333Y-117619047D01*
X102226190Y-117619047D01*
X102321428Y-117571428D01*
X102369047Y-117476190D01*
X102369047Y-117428571D01*
X102321428Y-117333333D01*
X102226190Y-117285714D01*
X102083333Y-117285714D01*
X101988095Y-117333333D01*
X101083333Y-117952380D02*
X101083333Y-117428571D01*
X101130952Y-117333333D01*
X101226190Y-117285714D01*
X101416666Y-117285714D01*
X101511904Y-117333333D01*
X101083333Y-117904761D02*
X101178571Y-117952380D01*
X101416666Y-117952380D01*
X101511904Y-117904761D01*
X101559523Y-117809523D01*
X101559523Y-117714285D01*
X101511904Y-117619047D01*
X101416666Y-117571428D01*
X101178571Y-117571428D01*
X101083333Y-117523809D01*
X100750000Y-117285714D02*
X100369047Y-117285714D01*
X100607142Y-116952380D02*
X100607142Y-117809523D01*
X100559523Y-117904761D01*
X100464285Y-117952380D01*
X100369047Y-117952380D01*
X99892857Y-117952380D02*
X99988095Y-117904761D01*
X100035714Y-117809523D01*
X100035714Y-116952380D01*
X99511904Y-117952380D02*
X99511904Y-117285714D01*
X99511904Y-116952380D02*
X99559523Y-117000000D01*
X99511904Y-117047619D01*
X99464285Y-117000000D01*
X99511904Y-116952380D01*
X99511904Y-117047619D01*
X98607142Y-117285714D02*
X98607142Y-118095238D01*
X98654761Y-118190476D01*
X98702380Y-118238095D01*
X98797619Y-118285714D01*
X98940476Y-118285714D01*
X99035714Y-118238095D01*
X98607142Y-117904761D02*
X98702380Y-117952380D01*
X98892857Y-117952380D01*
X98988095Y-117904761D01*
X99035714Y-117857142D01*
X99083333Y-117761904D01*
X99083333Y-117476190D01*
X99035714Y-117380952D01*
X98988095Y-117333333D01*
X98892857Y-117285714D01*
X98702380Y-117285714D01*
X98607142Y-117333333D01*
X98130952Y-117952380D02*
X98130952Y-116952380D01*
X97702380Y-117952380D02*
X97702380Y-117428571D01*
X97750000Y-117333333D01*
X97845238Y-117285714D01*
X97988095Y-117285714D01*
X98083333Y-117333333D01*
X98130952Y-117380952D01*
X97369047Y-117285714D02*
X96988095Y-117285714D01*
X97226190Y-116952380D02*
X97226190Y-117809523D01*
X97178571Y-117904761D01*
X97083333Y-117952380D01*
X96988095Y-117952380D01*
X96654761Y-117857142D02*
X96607142Y-117904761D01*
X96654761Y-117952380D01*
X96702380Y-117904761D01*
X96654761Y-117857142D01*
X96654761Y-117952380D01*
X95750000Y-117904761D02*
X95845238Y-117952380D01*
X96035714Y-117952380D01*
X96130952Y-117904761D01*
X96178571Y-117857142D01*
X96226190Y-117761904D01*
X96226190Y-117476190D01*
X96178571Y-117380952D01*
X96130952Y-117333333D01*
X96035714Y-117285714D01*
X95845238Y-117285714D01*
X95750000Y-117333333D01*
X95178571Y-117952380D02*
X95273809Y-117904761D01*
X95321428Y-117857142D01*
X95369047Y-117761904D01*
X95369047Y-117476190D01*
X95321428Y-117380952D01*
X95273809Y-117333333D01*
X95178571Y-117285714D01*
X95035714Y-117285714D01*
X94940476Y-117333333D01*
X94892857Y-117380952D01*
X94845238Y-117476190D01*
X94845238Y-117761904D01*
X94892857Y-117857142D01*
X94940476Y-117904761D01*
X95035714Y-117952380D01*
X95178571Y-117952380D01*
X94416666Y-117952380D02*
X94416666Y-117285714D01*
X94416666Y-117380952D02*
X94369047Y-117333333D01*
X94273809Y-117285714D01*
X94130952Y-117285714D01*
X94035714Y-117333333D01*
X93988095Y-117428571D01*
X93988095Y-117952380D01*
X93988095Y-117428571D02*
X93940476Y-117333333D01*
X93845238Y-117285714D01*
X93702380Y-117285714D01*
X93607142Y-117333333D01*
X93559523Y-117428571D01*
X93559523Y-117952380D01*
X93083333Y-117857142D02*
X93035714Y-117904761D01*
X93083333Y-117952380D01*
X93130952Y-117904761D01*
X93083333Y-117857142D01*
X93083333Y-117952380D01*
X92607142Y-117952380D02*
X92607142Y-116952380D01*
X92607142Y-117333333D02*
X92511904Y-117285714D01*
X92321428Y-117285714D01*
X92226190Y-117333333D01*
X92178571Y-117380952D01*
X92130952Y-117476190D01*
X92130952Y-117761904D01*
X92178571Y-117857142D01*
X92226190Y-117904761D01*
X92321428Y-117952380D01*
X92511904Y-117952380D01*
X92607142Y-117904761D01*
X91702380Y-117952380D02*
X91702380Y-117285714D01*
X91702380Y-117476190D02*
X91654761Y-117380952D01*
X91607142Y-117333333D01*
X91511904Y-117285714D01*
X91416666Y-117285714D01*
D11*
X107821428Y-114964285D02*
X107392857Y-115107142D01*
X106678571Y-115107142D01*
X106392857Y-114964285D01*
X106250000Y-114821428D01*
X106107142Y-114535714D01*
X106107142Y-114250000D01*
X106250000Y-113964285D01*
X106392857Y-113821428D01*
X106678571Y-113678571D01*
X107250000Y-113535714D01*
X107535714Y-113392857D01*
X107678571Y-113250000D01*
X107821428Y-112964285D01*
X107821428Y-112678571D01*
X107678571Y-112392857D01*
X107535714Y-112250000D01*
X107250000Y-112107142D01*
X106535714Y-112107142D01*
X106107142Y-112250000D01*
X103535714Y-115107142D02*
X103535714Y-113535714D01*
X103678571Y-113250000D01*
X103964285Y-113107142D01*
X104535714Y-113107142D01*
X104821428Y-113250000D01*
X103535714Y-114964285D02*
X103821428Y-115107142D01*
X104535714Y-115107142D01*
X104821428Y-114964285D01*
X104964285Y-114678571D01*
X104964285Y-114392857D01*
X104821428Y-114107142D01*
X104535714Y-113964285D01*
X103821428Y-113964285D01*
X103535714Y-113821428D01*
X102535714Y-113107142D02*
X101392857Y-113107142D01*
X102107142Y-112107142D02*
X102107142Y-114678571D01*
X101964285Y-114964285D01*
X101678571Y-115107142D01*
X101392857Y-115107142D01*
X98964285Y-115107142D02*
X100392857Y-115107142D01*
X100392857Y-112107142D01*
X97964285Y-115107142D02*
X97964285Y-113107142D01*
X97964285Y-112107142D02*
X98107142Y-112250000D01*
X97964285Y-112392857D01*
X97821428Y-112250000D01*
X97964285Y-112107142D01*
X97964285Y-112392857D01*
X95250000Y-113107142D02*
X95250000Y-115535714D01*
X95392857Y-115821428D01*
X95535714Y-115964285D01*
X95821428Y-116107142D01*
X96250000Y-116107142D01*
X96535714Y-115964285D01*
X95250000Y-114964285D02*
X95535714Y-115107142D01*
X96107142Y-115107142D01*
X96392857Y-114964285D01*
X96535714Y-114821428D01*
X96678571Y-114535714D01*
X96678571Y-113678571D01*
X96535714Y-113392857D01*
X96392857Y-113250000D01*
X96107142Y-113107142D01*
X95535714Y-113107142D01*
X95250000Y-113250000D01*
X93821428Y-115107142D02*
X93821428Y-112107142D01*
X92535714Y-115107142D02*
X92535714Y-113535714D01*
X92678571Y-113250000D01*
X92964285Y-113107142D01*
X93392857Y-113107142D01*
X93678571Y-113250000D01*
X93821428Y-113392857D01*
X91535714Y-113107142D02*
X90392857Y-113107142D01*
X91107142Y-112107142D02*
X91107142Y-114678571D01*
X90964285Y-114964285D01*
X90678571Y-115107142D01*
X90392857Y-115107142D01*
M02*
