M48
; DRILL file {KiCad (5.1.10)-1} date 05/10/21 23:52:41
; FORMAT={3:3/ absolute / metric / suppress leading zeros}
; #@! TF.CreationDate,2021-05-10T23:52:41-03:00
; #@! TF.GenerationSoftware,Kicad,Pcbnew,(5.1.10)-1
FMAT,2
METRIC,TZ
T1C0.500
T2C0.710
T3C0.800
T4C1.000
T5C1.200
T6C1.300
T7C2.000
T8C3.200
%
G90
G05
T1
X64600Y-115000
X65303Y-113303
X65303Y-116697
X67000Y-112600
X67000Y-117400
X68697Y-113303
X68697Y-116697
X69400Y-115000
X131600Y-115000
X132303Y-113303
X132303Y-116697
X134000Y-112600
X134000Y-117400
X135697Y-113303
X135697Y-116697
X136400Y-115000
T2
X65004Y-103556
X70104Y-105156
X138156Y-119304
X143256Y-120904
T3
X69596Y-123952
X69596Y-126452
X139700Y-109728
X139700Y-112228
T4
X76000Y-104600
X76000Y-125800
X122000Y-104600
X122100Y-125600
T5
X127508Y-110744
X127508Y-125984
T6
X58928Y-104648
X58928Y-109728
X58928Y-113284
X58928Y-118364
X58928Y-124968
X64008Y-124968
X128016Y-104648
X132588Y-125476
X133096Y-104648
X136652Y-104648
X137668Y-125476
X141732Y-104648
T7
X52832Y-104140
X52832Y-110236
X52832Y-119888
X52832Y-125984
X147320Y-104140
X147320Y-110236
X147320Y-119888
X147320Y-125984
T8
X67000Y-115000
X134000Y-115000
T0
M30
